<?xml version="1.0" standalone="no"?>
<!DOCTYPE svg PUBLIC "-//W3C//DTD SVG 20010904//EN"
 "http://www.w3.org/TR/2001/REC-SVG-20010904/DTD/svg10.dtd">
<svg version="1.0" xmlns="http://www.w3.org/2000/svg"
 width="1265.000000pt" height="1182.000000pt" viewBox="0 0 1265.000000 1182.000000"
 preserveAspectRatio="xMidYMid meet">

<g transform="translate(0.000000,1182.000000) scale(0.100000,-0.100000)"
fill="#000000" stroke="none">
<path d="M5314 11484 c-18 -14 -18 -15 4 -4 12 6 22 13 22 15 0 8 -5 6 -26
-11z"/>
<path d="M5209 11413 c-13 -16 -12 -17 4 -4 16 13 21 21 13 21 -2 0 -10 -8
-17 -17z"/>
<path d="M5074 11313 c-217 -174 -421 -401 -589 -653 -46 -69 -275 -464 -509
-879 -234 -415 -428 -756 -430 -758 -2 -2 -84 -34 -182 -72 -1016 -392 -1855
-854 -2464 -1359 -142 -118 -403 -378 -494 -492 -213 -267 -338 -521 -382
-774 -20 -111 -14 -308 12 -406 143 -543 734 -907 1699 -1044 462 -66 1153
-74 1750 -20 265 24 547 62 555 74 4 6 13 69 20 140 l12 128 47 7 c53 8 431
79 508 95 l51 11 107 192 c59 106 119 212 133 236 l26 44 -35 -6 c-28 -5 -222
-28 -449 -52 -134 -14 -349 -27 -530 -33 l-205 -7 -43 -75 c-23 -41 -96 -169
-160 -285 l-117 -210 -125 -12 c-190 -17 -759 -38 -769 -27 -5 5 63 136 158
304 210 370 997 1763 1226 2170 95 168 281 498 414 733 132 236 241 430 241
433 0 3 11 21 25 41 13 20 22 40 19 45 -3 4 0 8 7 8 7 0 10 3 7 6 -4 3 3 15
14 26 11 11 18 21 16 23 -1 2 -187 123 -413 270 -225 147 -415 272 -421 278
-9 9 16 61 100 212 545 972 596 1056 746 1245 112 140 302 334 425 432 111 89
121 98 114 98 -3 0 -54 -39 -115 -87z m-1844 -2848 c0 -3 -91 -166 -201 -362
-253 -448 -356 -632 -451 -803 -191 -343 -422 -756 -546 -975 -190 -337 -418
-740 -530 -938 l-95 -169 -36 7 c-55 10 -235 81 -334 130 -131 66 -225 135
-319 233 -149 157 -208 292 -215 497 -4 105 -1 132 21 218 93 363 394 742 901
1138 402 314 1002 664 1650 964 137 63 155 70 155 60z"/>
<path d="M6481 10895 c-203 -36 -449 -147 -635 -287 -59 -44 -160 -132 -224
-195 -94 -92 -105 -106 -57 -69 95 72 212 134 315 167 122 40 297 51 400 25
151 -38 280 -128 363 -254 25 -37 88 -157 140 -267 102 -216 295 -616 427
-890 45 -93 91 -189 101 -213 16 -38 22 -42 41 -36 59 18 1142 394 1145 398 3
2 -9 30 -26 63 -16 32 -59 121 -95 198 -219 473 -227 489 -318 593 -367 417
-748 672 -1133 758 -101 22 -340 27 -444 9z"/>
<path d="M9393 8527 c-180 -67 -241 -300 -117 -445 127 -148 375 -121 459 52
72 147 15 315 -130 382 -56 27 -156 31 -212 11z"/>
<path d="M5180 7738 c-39 -13 -187 -157 -501 -489 l-194 -205 -113 -204 c-66
-119 -109 -207 -104 -212 25 -25 845 -506 855 -502 7 3 35 46 63 97 28 51 158
281 289 512 l237 420 -118 238 c-121 244 -158 298 -226 333 -40 21 -141 27
-188 12z"/>
<path d="M9255 7163 c-210 -106 -484 -236 -715 -338 -96 -42 -178 -80 -182
-83 -8 -8 41 -122 51 -122 12 0 285 151 456 253 198 117 589 378 565 376 -3 0
-81 -39 -175 -86z"/>
<path d="M10063 7184 c-129 -46 -208 -203 -169 -337 58 -199 296 -271 450
-136 72 63 91 107 91 209 0 98 -13 130 -78 198 -72 74 -193 101 -294 66z"/>
<path d="M6664 6608 l-522 -321 125 -256 c68 -140 125 -256 127 -258 9 -9 631
219 926 339 107 44 203 82 213 85 9 3 17 10 17 17 0 17 -311 640 -324 648 -6
4 -8 8 -3 8 4 0 1 14 -8 30 -9 17 -19 30 -23 29 -4 0 -242 -145 -528 -321z"/>
<path d="M7710 5498 c-282 -136 -747 -333 -927 -392 l-52 -17 177 -355 c97
-195 181 -354 186 -354 5 0 239 140 521 310 282 171 518 310 525 310 15 0 26
-25 -129 294 -74 152 -139 276 -145 275 -6 0 -76 -32 -156 -71z"/>
<path d="M10025 4503 l-531 -205 1 -156 c0 -222 -40 -393 -140 -595 -94 -189
-251 -382 -404 -497 -233 -176 -525 -249 -755 -190 -123 31 -209 81 -307 179
l-85 86 38 -78 c47 -95 142 -255 216 -360 30 -43 51 -82 46 -86 -5 -4 -234
-128 -509 -276 -275 -147 -511 -274 -524 -282 l-23 -15 38 -40 c72 -74 247
-198 359 -253 199 -98 373 -142 605 -152 528 -22 1069 197 1546 625 390 350
729 897 884 1427 91 314 133 659 110 920 -6 66 -11 128 -11 138 0 9 -6 17 -12
16 -7 0 -251 -93 -542 -206z"/>
<path d="M930 4368 c-304 -538 -384 -684 -435 -798 -77 -172 -109 -261 -97
-269 6 -4 216 -69 466 -146 251 -76 456 -143 456 -148 0 -6 -41 -85 -91 -176
-92 -166 -763 -1361 -783 -1393 -14 -22 14 -81 99 -208 66 -98 159 -209 168
-200 3 3 168 252 367 554 290 440 360 554 355 573 -3 12 -6 25 -6 28 0 2 -13
33 -29 68 -60 133 -75 214 -74 412 1 169 3 187 32 296 42 157 88 259 219 489
225 396 583 1030 583 1034 0 2 -26 7 -57 10 -385 41 -667 80 -883 122 -69 13
-127 24 -131 24 -3 0 -74 -123 -159 -272z"/>
<path d="M2609 3698 c-45 -79 -93 -162 -107 -186 -13 -24 -23 -45 -20 -47 5
-6 658 98 658 105 0 5 -435 270 -443 270 -3 0 -42 -64 -88 -142z"/>
<path d="M6550 1195 c-257 -52 -402 -208 -388 -419 10 -151 89 -219 336 -290
191 -55 212 -67 212 -122 0 -24 -8 -39 -31 -58 -41 -35 -68 -41 -179 -40 -112
0 -196 20 -298 71 -40 20 -74 34 -76 32 -1 -2 -31 -55 -65 -118 -45 -83 -59
-116 -51 -126 16 -20 121 -63 207 -86 112 -30 322 -37 434 -14 237 48 376 182
387 376 4 66 1 84 -21 131 -40 89 -123 137 -341 198 -142 40 -180 62 -184 109
-3 25 3 40 24 62 38 39 84 53 184 53 100 0 172 -16 255 -54 33 -16 60 -28 61
-27 8 9 114 229 114 235 0 17 -122 64 -213 83 -107 22 -269 24 -367 4z"/>
<path d="M3520 618 c-206 -314 -377 -575 -378 -580 -2 -5 74 -7 169 -6 l172 3
66 108 66 107 249 -2 250 -3 20 -107 19 -108 164 0 c152 0 164 1 159 18 -6 20
-256 1130 -256 1137 0 3 -73 5 -162 5 l-163 -1 -375 -571z m480 235 c0 -5 14
-84 31 -176 17 -92 29 -170 27 -173 -3 -2 -69 -3 -146 -2 l-142 3 108 177 c95
158 122 195 122 171z"/>
<path d="M4945 1168 c-9 -39 -245 -1129 -245 -1134 0 -2 73 -4 163 -4 l163 0
18 88 c10 48 25 117 33 154 l15 68 82 0 82 0 84 -155 84 -155 168 0 c93 0 168
3 168 6 0 4 -41 81 -91 171 -50 90 -90 166 -88 167 2 2 31 17 64 34 164 82
255 229 255 412 0 46 -7 99 -17 130 -21 65 -96 150 -158 180 -101 49 -133 53
-462 57 l-312 5 -6 -24z m562 -261 c41 -22 63 -64 63 -121 0 -89 -50 -156
-134 -181 -56 -17 -286 -21 -286 -5 0 10 58 284 67 313 5 17 15 19 131 15 96
-3 135 -8 159 -21z"/>
<path d="M7490 1186 c0 -8 -241 -1120 -246 -1138 -5 -17 21 -18 459 -18 l465
0 21 93 c11 50 24 107 27 125 l7 32 -302 0 c-234 0 -301 3 -301 13 0 6 4 28 9
47 5 19 15 61 21 93 l11 57 260 0 c142 0 259 2 259 5 0 3 11 57 25 121 14 64
25 117 25 120 0 2 -115 4 -255 4 -237 0 -255 1 -254 18 0 9 8 51 17 92 l17 75
292 3 c267 2 292 4 297 20 2 9 14 62 26 117 12 55 23 106 25 113 4 9 -91 12
-450 12 -250 0 -455 -2 -455 -4z"/>
<path d="M8725 1178 c-5 -18 -245 -1131 -245 -1141 0 -4 71 -7 158 -7 l159 0
62 290 c34 159 66 302 70 316 6 24 28 -9 191 -289 l185 -316 136 -1 135 0 58
267 c31 148 88 409 125 581 l68 312 -161 -2 -160 -3 -67 -308 c-36 -169 -68
-309 -70 -311 -2 -3 -87 137 -189 310 l-185 314 -133 0 c-97 0 -134 -3 -137
-12z"/>
<path d="M10062 622 c-67 -312 -122 -573 -122 -579 0 -10 99 -13 460 -13 l460
0 5 22 c3 13 16 68 29 123 l23 100 -299 5 c-164 3 -299 9 -300 13 -1 4 7 50
17 102 l19 95 257 0 c237 0 258 1 263 18 8 28 46 211 46 222 0 6 -89 10 -255
10 -140 0 -255 2 -255 4 0 3 7 35 15 73 9 37 18 78 20 90 l5 23 292 2 292 3
28 120 c15 66 27 123 28 128 0 4 -204 7 -452 7 l-453 0 -123 -568z"/>
<path d="M11310 1184 c0 -3 -11 -55 -25 -116 -14 -61 -25 -117 -25 -124 0 -11
34 -14 175 -14 l175 0 -5 -22 c-25 -110 -185 -855 -185 -865 0 -10 36 -13 160
-13 158 0 160 0 165 23 4 12 48 214 98 447 l93 425 176 3 c158 2 177 4 182 20
2 9 14 62 26 117 12 55 23 106 25 113 4 9 -104 12 -515 12 -286 0 -520 -3
-520 -6z"/>
<path d="M12362 403 c-132 -65 -146 -251 -26 -336 117 -82 281 -12 308 132 13
74 -33 165 -104 201 -48 24 -132 26 -178 3z"/>
</g>
</svg>
