<?xml version="1.0" standalone="no"?>
<!DOCTYPE svg PUBLIC "-//W3C//DTD SVG 20010904//EN"
 "http://www.w3.org/TR/2001/REC-SVG-20010904/DTD/svg10.dtd">
<svg version="1.0" xmlns="http://www.w3.org/2000/svg"
 width="225.000000pt" height="225.000000pt" viewBox="0 0 225.000000 225.000000"
 preserveAspectRatio="xMidYMid meet">

<g transform="translate(0.000000,225.000000) scale(0.100000,-0.100000)"
fill="#000000" stroke="none">
<path d="M760 2148 c-307 -43 -565 -274 -647 -578 -27 -100 -25 -301 5 -404
70 -243 260 -445 495 -527 123 -43 124 -43 190 54 l57 82 -27 3 c-226 20 -406
141 -501 337 -45 92 -57 150 -57 265 0 84 5 120 24 179 63 191 226 344 423
397 69 18 228 18 298 -1 78 -21 166 -67 235 -123 l60 -49 85 30 c47 16 87 32
89 34 3 2 -26 35 -65 74 -123 125 -282 205 -457 228 -89 12 -115 12 -207 -1z"/>
<path d="M790 1588 l0 -223 -137 -137 c-75 -76 -135 -139 -133 -141 3 -2 32
-24 66 -50 l61 -46 156 157 157 157 0 253 0 252 -85 0 -85 0 0 -222z"/>
<path d="M1445 1647 c-169 -56 -276 -206 -292 -407 -11 -144 44 -277 158 -384
115 -109 222 -133 339 -75 111 56 208 174 244 298 33 114 12 281 -50 386 -36
62 -112 133 -174 162 -65 31 -165 40 -225 20z m-60 -282 c48 -63 202 -118 367
-131 l80 -7 -5 -60 c-14 -156 -173 -337 -296 -337 -150 0 -318 238 -294 418 6
52 15 72 51 120 33 43 63 42 97 -3z"/>
<path d="M1180 749 c-130 -11 -180 -29 -223 -80 -49 -56 -57 -96 -57 -271 0
-180 4 -190 92 -228 288 -124 1053 -89 1152 52 25 35 23 337 -3 393 -21 48
-76 99 -124 114 -30 10 -237 31 -245 25 -2 -1 -7 -58 -13 -128 -17 -223 -54
-350 -122 -419 l-42 -42 -3 169 -2 168 25 24 c34 32 36 105 3 128 -35 25 -152
22 -178 -4 -32 -32 -21 -130 15 -130 13 0 15 -25 15 -175 0 -165 -1 -175 -18
-166 -82 44 -152 279 -152 513 0 38 -3 67 -7 67 -5 -1 -55 -6 -113 -10z"/>
</g>
</svg>
